<svg width="135.000000" height="66.000000" viewBox="0 0 135 66" fill="none" xmlns="http://www.w3.org/2000/svg" xmlns:xlink="http://www.w3.org/1999/xlink">
	<desc>
			Created with Pixso.
	</desc>
	<defs/>
	<path d="M41.8 18.19L41.8 21.03L44.12 21.03L44.15 30.81Q44.15 32.57 44.5 33.76Q44.82 34.79 45.49 35.5Q46.88 36.97 49.81 37L51.08 37L50.41 34.01L49.92 34.01Q49.53 34.01 49.14 33.94Q48.35 33.83 47.86 33.38Q47.1 32.68 47.1 31.16L47.1 21.07L49.35 21.07L49.35 18.19L47.1 18.19L47.1 12.1L44.12 12.1L44.12 18.19L41.8 18.19ZM32.16 19.52L32.16 22.41L34.48 22.41L34.48 37L37.44 37L37.44 22.41L39.83 22.41L39.83 19.52L37.44 19.56L37.44 17.48Q37.46 16.1 38.15 15.5Q38.64 15.07 39.48 15.02L40.14 15.02L40.81 12.17L39.51 12.17Q38.27 12.19 37.28 12.7Q36.44 13.13 35.78 13.9Q34.98 14.9 34.67 16.03Q34.48 16.73 34.48 17.48L34.48 19.52L32.16 19.52ZM1.44 12.39L1.44 37L14.66 37L14.66 33.97L4.5 33.97L4.5 12.39L1.44 12.39ZM52.66 12.39L52.66 37L55.72 37L55.72 26.1L58.88 26.1L58.88 23.11L55.72 23.11L55.72 12.39L52.66 12.39ZM60.64 23.11L60.64 26.1L63.77 26.1L63.77 37L66.86 37L66.86 12.39L63.77 12.39L63.77 23.11L60.64 23.11ZM102.28 20.71Q101.63 21.85 101.63 23.35Q101.63 24.06 101.77 24.69Q101.89 25.13 102.09 25.52Q102.88 27.05 105.01 27.89Q105.75 28.14 107.4 28.52Q108.94 28.91 109.65 29.12Q112.15 29.88 112.4 31.1Q112.43 31.23 112.43 31.37Q112.43 31.86 112.27 32.3Q112.08 32.83 111.65 33.27Q111.16 33.77 110.57 34.05Q109.84 34.39 108.94 34.39L108.94 37.17Q110.66 37.17 112.05 36.5Q112.31 36.37 112.57 36.22Q113.73 35.53 114.39 34.5Q115.27 33.15 115.27 31.23Q115.27 30.13 114.85 29.23Q114.8 29.12 114.75 29.01Q114.43 28.44 113.99 28Q112.99 27 111.34 26.66Q107.5 25.75 106.17 25.18Q104.66 24.58 104.45 23.67Q104.41 23.52 104.41 23.35Q104.41 23.18 104.44 23Q104.52 22.45 104.87 21.95Q105.3 21.3 105.9 20.96Q106.53 20.61 107.36 20.61L107.36 17.87Q105.96 17.87 104.55 18.61Q103 19.43 102.28 20.71ZM108.91 17.87L108.91 20.65Q109.44 20.65 110.07 20.89Q111.36 21.37 111.86 22.28Q112.18 22.85 112.18 23.6L114.96 23.14Q114.96 22.89 114.93 22.63Q114.77 21.33 113.8 20.12Q112.95 19.1 111.87 18.54Q110.56 17.87 108.91 17.87ZM16.62 23.11L16.62 31.79Q16.62 32.99 17.5 34.32Q18.37 35.61 19.58 36.28Q20.92 37.03 22.67 37.03L22.67 34.18Q22.04 34.18 21.49 33.97Q21.09 33.81 20.74 33.55Q19.92 32.93 19.66 32.12Q19.54 31.75 19.54 31.33L19.54 23.6Q19.54 23.07 19.79 22.55Q20.13 21.81 20.71 21.39Q21.48 20.82 22.67 20.82L22.67 17.98Q21.12 17.98 19.87 18.58Q18.9 19.05 18.1 19.87Q16.7 21.37 16.63 22.93Q16.62 23.02 16.62 23.11ZM24.18 34.18L24.18 37.03Q25.66 37.01 26.86 36.41Q27.79 35.95 28.54 35.13Q29.9 33.65 30.01 32.08Q30.02 31.93 30.02 31.79L30.02 23.11Q30.02 21.91 29.14 20.61Q28.3 19.35 27.13 18.7Q25.84 17.98 24.15 17.98L24.15 20.82Q24.86 20.82 25.46 21.08Q25.69 21.18 25.91 21.32Q26.57 21.77 26.87 22.4Q27.14 22.94 27.14 23.6L27.14 31.41Q27.14 31.93 26.85 32.5Q26.45 33.35 25.77 33.77Q25.11 34.18 24.18 34.18ZM69.6 23.11L69.6 31.79Q69.6 32.99 70.48 34.32Q71.35 35.61 72.56 36.28Q73.9 37.03 75.65 37.03L75.65 34.18Q75.02 34.18 74.47 33.97Q74.07 33.81 73.72 33.55Q72.9 32.93 72.64 32.12Q72.52 31.75 72.52 31.33L72.52 23.6Q72.52 23.07 72.77 22.55Q73.11 21.81 73.69 21.39Q74.46 20.82 75.65 20.82L75.65 17.98Q74.1 17.98 72.85 18.58Q71.88 19.05 71.08 19.87Q69.68 21.37 69.61 22.93Q69.6 23.02 69.6 23.11ZM77.16 34.18L77.16 37.03Q78.64 37.01 79.84 36.41Q80.77 35.95 81.52 35.13Q82.88 33.65 82.99 32.08Q83 31.93 83 31.79L83 23.11Q83 21.91 82.12 20.61Q81.28 19.35 80.11 18.7Q78.82 17.98 77.13 17.98L77.13 20.82Q77.84 20.82 78.44 21.08Q78.67 21.18 78.89 21.32Q79.55 21.77 79.86 22.4Q80.12 22.94 80.12 23.6L80.12 31.41Q80.12 31.93 79.83 32.5Q79.43 33.35 78.75 33.77Q78.09 34.18 77.16 34.18ZM117.35 23.07L117.35 31.79Q117.35 33.02 118.33 34.39Q119.23 35.68 120.47 36.33Q121.74 37 123.36 37L123.36 34.25Q123.09 34.25 122.83 34.21Q122.1 34.09 121.43 33.62Q120.42 32.87 120.31 32Q120.3 31.9 120.3 31.79L120.3 28.63L130.99 28.63L130.99 23.04Q130.98 22.65 130.9 22.28Q130.62 20.89 129.37 19.7Q128.22 18.65 126.88 18.24Q126 17.98 125.05 17.98L125.05 20.72Q125.21 20.72 125.38 20.73Q125.98 20.79 126.56 21.07Q127.53 21.51 127.91 22.26Q128.17 22.75 128.17 23.39L128.17 25.78L120.3 25.78L120.3 23.39Q120.3 22.86 120.69 22.23Q121.2 21.43 121.94 21.06Q122.55 20.75 123.32 20.75L123.32 17.98Q122.04 17.99 120.94 18.46Q119.82 18.93 118.89 19.87Q117.39 21.45 117.35 23.07L117.35 23.07ZM85.67 18.01L85.67 31.93Q85.67 33.2 86.58 34.53Q87.39 35.7 88.5 36.35Q89.9 37.17 91.79 37.17L91.79 34.22Q91.2 34.22 90.66 34.04Q90.28 33.91 89.92 33.69Q89.04 33.1 88.77 32.3Q88.66 31.96 88.66 31.58L88.66 18.01L85.67 18.01ZM93.33 34.22L93.33 37.17Q94.84 37.15 96.07 36.56Q97.08 36.07 97.91 35.2Q99.38 33.63 99.42 32.02Q99.42 31.97 99.42 31.93L99.42 18.01L96.43 18.01L96.43 31.58Q96.43 32.14 96.11 32.71Q95.74 33.34 95.2 33.71Q94.44 34.22 93.33 34.22ZM104.23 31.48L101.46 32Q101.46 32.27 101.49 32.53Q101.62 33.66 102.34 34.71Q102.92 35.57 103.72 36.13Q105.21 37.17 107.43 37.17L107.43 34.39Q106.69 34.36 105.89 33.97Q104.78 33.36 104.42 32.45Q104.23 32 104.23 31.48ZM125.05 34.22L125.05 37Q125.94 37 126.78 36.77Q127.48 36.58 128.14 36.22Q129.35 35.56 130.09 34.56Q130.73 33.69 131.02 32.57L128.53 31.65Q128.42 32 128.21 32.39Q127.68 33.3 126.89 33.76Q126.1 34.22 125.05 34.22Z" fill="#FFFFFF" fill-opacity="1.000000" fill-rule="evenodd"/>
	<path d="M47.14 53.43Q47.48 53.56 47.98 53.56Q48.48 53.56 48.8 53.43Q49.13 53.29 49.31 53.07Q49.47 52.87 49.51 52.66Q49.52 52.62 49.52 52.59L49.28 52.59Q49.27 52.69 49.23 52.77Q49.15 52.98 48.96 53.15Q48.68 53.38 47.98 53.38Q47.28 53.38 47 53.13Q46.74 52.88 46.68 52.59L46.42 52.59Q46.43 52.62 46.44 52.66Q46.48 52.87 46.63 53.07Q46.81 53.29 47.14 53.43ZM36.16 62.81Q36.78 63.05 37.51 63.05Q38.14 63.05 38.71 62.86Q38.89 62.79 39.07 62.71Q39.36 62.56 39.63 62.38Q40.01 62.11 40.33 61.75Q40.5 61.55 40.66 61.33Q40.96 60.89 41.17 60.37Q41.23 60.21 41.28 60.04Q41.47 59.42 41.47 58.74Q41.47 58.56 41.45 58.39Q41.4 57.78 41.18 57.18Q41.01 56.72 40.75 56.31Q40.58 56.03 40.37 55.78Q40.12 55.48 39.82 55.24Q39.5 54.98 39.12 54.79Q39.03 54.74 38.93 54.7Q38.28 54.41 37.51 54.41Q36.94 54.41 36.42 54.58Q36.18 54.65 35.94 54.77Q35.61 54.93 35.31 55.15Q34.97 55.4 34.67 55.73Q34.5 55.93 34.34 56.15Q34.04 56.59 33.84 57.11Q33.75 57.34 33.68 57.57Q33.54 58.13 33.54 58.74Q33.54 59.04 33.58 59.33Q33.64 59.84 33.82 60.33Q34.01 60.84 34.31 61.28Q34.46 61.51 34.64 61.71Q34.88 61.99 35.15 62.21Q35.5 62.49 35.9 62.69Q36.03 62.75 36.16 62.81ZM69.77 62.81Q70.4 63.05 71.12 63.05Q71.75 63.05 72.32 62.86Q72.5 62.79 72.68 62.71Q72.98 62.56 73.24 62.38Q73.62 62.11 73.94 61.75Q74.12 61.55 74.27 61.33Q74.58 60.89 74.78 60.37Q74.84 60.21 74.89 60.04Q75.08 59.42 75.08 58.74Q75.08 58.56 75.06 58.39Q75.02 57.78 74.79 57.18Q74.62 56.72 74.36 56.31Q74.19 56.03 73.98 55.78Q73.73 55.48 73.44 55.24Q73.11 54.98 72.73 54.79Q72.64 54.74 72.54 54.7Q71.89 54.41 71.12 54.41Q70.55 54.41 70.04 54.58Q69.79 54.65 69.55 54.77Q69.22 54.93 68.93 55.15Q68.58 55.4 68.28 55.73Q68.11 55.93 67.96 56.15Q67.65 56.59 67.45 57.11Q67.36 57.34 67.3 57.57Q67.15 58.13 67.15 58.74Q67.15 59.04 67.19 59.33Q67.25 59.84 67.44 60.33Q67.63 60.84 67.92 61.28Q68.07 61.51 68.25 61.71Q68.49 61.99 68.77 62.21Q69.11 62.49 69.51 62.69Q69.64 62.75 69.77 62.81ZM126.65 58.39Q126.64 58.53 126.64 58.67Q126.64 58.83 126.66 58.99Q126.7 59.64 126.93 60.26Q127.1 60.72 127.35 61.13Q127.53 61.42 127.75 61.68Q128.07 62.05 128.45 62.34Q128.72 62.54 129.01 62.69Q129.2 62.79 129.41 62.86Q129.97 63.07 130.6 63.07Q131.25 63.07 131.92 62.84Q132.25 62.73 132.55 62.56Q132.86 62.39 133.13 62.17Q133.46 61.91 133.69 61.58Q133.86 61.35 133.97 61.09L133.75 61.03Q133.46 61.58 133.02 61.96Q132.97 62 132.91 62.05Q132.44 62.41 131.91 62.6Q131.86 62.62 131.8 62.64Q131.21 62.83 130.65 62.83Q130.11 62.83 129.61 62.67Q129.39 62.6 129.17 62.49Q128.9 62.35 128.65 62.18Q128.28 61.92 127.97 61.58Q127.81 61.4 127.67 61.2Q127.37 60.77 127.17 60.26Q127.09 60.05 127.03 59.82Q126.88 59.28 126.88 58.71Q126.88 58.44 126.92 58.17Q126.97 57.71 127.13 57.25Q127.25 56.91 127.42 56.59Q127.61 56.26 127.85 55.95Q128.03 55.73 128.24 55.55Q128.59 55.23 129.03 55.01Q129.73 54.67 130.61 54.67Q130.71 54.67 130.81 54.67Q131.27 54.7 131.71 54.83Q131.76 54.84 131.81 54.86Q132.3 55.03 132.74 55.36Q133.22 55.74 133.54 56.36L133.77 56.29Q133.65 56.03 133.49 55.8Q133.14 55.3 132.59 54.95Q131.8 54.43 130.66 54.43Q129.7 54.43 128.96 54.8Q128.44 55.06 128.03 55.43Q127.86 55.6 127.7 55.79Q127.4 56.15 127.18 56.55Q127.03 56.84 126.91 57.16Q126.69 57.77 126.65 58.39ZM3.69 58.62L0.36 63L0.65 63L3.89 58.76L5.39 58.76L5.39 63L5.63 63L5.63 58.76L7.13 58.76L10.36 63L10.67 63L7.34 58.62L10.51 54.48L10.21 54.48L7.11 58.52L5.63 58.52L5.63 54.48L5.39 54.48L5.39 58.52L3.92 58.52L0.82 54.48L0.52 54.48L3.69 58.62ZM13.66 54.48L13.66 63L13.96 63L20.01 54.91L20.01 63L20.25 63L20.25 54.48L20.02 54.48L13.9 62.68L13.9 54.48L13.66 54.48ZM30.09 54.72L30.09 63L30.33 63L30.33 54.48L25.66 54.48L25.6 56.77Q25.55 58.53 25.39 59.69Q25.23 60.85 24.95 61.51Q24.68 62.18 24.29 62.46Q24.14 62.58 23.96 62.65Q23.71 62.74 23.42 62.74L23.42 62.98Q23.84 62.98 24.19 62.82Q24.3 62.76 24.41 62.69Q24.84 62.39 25.14 61.69Q25.45 60.99 25.62 59.79Q25.79 58.58 25.84 56.77L25.89 54.72L30.09 54.72ZM44.67 54.48L44.67 63L44.97 63L51.02 54.91L51.02 63L51.26 63L51.26 54.48L51.03 54.48L44.91 62.68L44.91 54.48L44.67 54.48ZM59.65 54.48L59.65 63L59.89 63L59.89 58.76L61.58 58.76L64.92 63L65.23 63L61.77 58.62L65.06 54.48L64.76 54.48L61.56 58.52L59.89 58.52L59.89 54.48L59.65 54.48ZM86.27 55L86.27 63L86.51 63L86.51 54.48L86.32 54.48L82.4 61.03L78.47 54.48L78.28 54.48L78.28 63L78.52 63L78.52 55L82.3 61.32L82.49 61.32L86.27 55ZM90.33 54.48L90.33 63L90.57 63L90.57 54.72L96.16 54.72L96.16 63L96.4 63L96.4 54.48L90.33 54.48ZM106.24 54.72L106.24 63L106.48 63L106.48 54.48L101.81 54.48L101.76 56.77Q101.71 58.53 101.55 59.69Q101.38 60.85 101.11 61.51Q100.83 62.18 100.45 62.46Q100.29 62.58 100.11 62.65Q99.86 62.74 99.57 62.74L99.57 62.98Q100 62.98 100.34 62.82Q100.46 62.76 100.56 62.69Q100.99 62.39 101.29 61.69Q101.6 60.99 101.77 59.79Q101.95 58.58 102 56.77L102.04 54.72L106.24 54.72ZM115.89 63L115.89 62.75L110.54 62.75L110.54 58.76L115.13 58.76L115.13 58.52L110.54 58.52L110.54 54.72L115.78 54.72L115.78 54.48L110.3 54.48L110.3 63L115.89 63ZM119.14 54.48L119.14 63L119.38 63L119.38 58.76L121.08 58.76L124.41 63L124.72 63L121.27 58.62L124.56 54.48L124.25 54.48L121.05 58.52L119.38 58.52L119.38 54.48L119.14 54.48ZM33.87 59.64Q33.78 59.2 33.78 58.74Q33.78 58.51 33.8 58.28Q33.86 57.76 34.05 57.25Q34.21 56.81 34.46 56.42Q34.61 56.17 34.81 55.94Q35.04 55.67 35.31 55.44Q35.62 55.19 35.99 55Q36.13 54.93 36.27 54.88Q36.85 54.65 37.51 54.65Q38.09 54.65 38.6 54.83Q38.79 54.9 38.98 54.99Q39.27 55.14 39.53 55.33Q39.88 55.58 40.16 55.91Q40.3 56.07 40.43 56.25Q40.74 56.69 40.95 57.21Q41.07 57.53 41.14 57.87Q41.23 58.29 41.23 58.74Q41.23 58.96 41.2 59.19Q41.15 59.71 40.96 60.22Q40.8 60.64 40.57 61.02Q40.4 61.29 40.2 61.53Q39.96 61.81 39.69 62.03Q39.38 62.28 39.02 62.47Q38.91 62.52 38.81 62.56Q38.21 62.82 37.51 62.82Q36.91 62.82 36.38 62.63Q36.2 62.57 36.02 62.48Q35.69 62.32 35.41 62.1Q35.09 61.87 34.83 61.57Q34.66 61.38 34.52 61.16Q34.24 60.75 34.05 60.26Q33.94 59.95 33.87 59.64ZM67.48 59.64Q67.39 59.2 67.39 58.74Q67.39 58.51 67.41 58.28Q67.47 57.76 67.66 57.25Q67.82 56.81 68.07 56.42Q68.23 56.17 68.42 55.94Q68.65 55.67 68.92 55.44Q69.23 55.19 69.6 55Q69.74 54.93 69.89 54.88Q70.46 54.65 71.12 54.65Q71.7 54.65 72.22 54.83Q72.41 54.9 72.59 54.99Q72.88 55.14 73.15 55.33Q73.49 55.58 73.77 55.91Q73.92 56.07 74.04 56.25Q74.36 56.69 74.56 57.21Q74.68 57.53 74.75 57.87Q74.84 58.29 74.84 58.74Q74.84 58.96 74.81 59.19Q74.76 59.71 74.57 60.22Q74.41 60.64 74.18 61.02Q74.01 61.29 73.81 61.53Q73.58 61.81 73.3 62.03Q72.99 62.28 72.63 62.47Q72.53 62.52 72.42 62.56Q71.82 62.82 71.12 62.82Q70.52 62.82 70 62.63Q69.81 62.57 69.63 62.48Q69.3 62.32 69.02 62.1Q68.71 61.87 68.44 61.57Q68.27 61.38 68.13 61.16Q67.85 60.75 67.66 60.26Q67.55 59.95 67.48 59.64Z" fill="#FFFFFF" fill-opacity="1.000000" fill-rule="evenodd"/>
</svg>
